<?xml version="1.0" encoding="UTF-8"?>
<svg width="16" height="16" viewBox="0 0 16 16" xmlns="http://www.w3.org/2000/svg" fill="none">
  <path d="M13.4933 1.0133L13.4933 1.0133L13.4933 1.0133Q13.7067 1.0133 13.8400 1.1467L13.8400 1.1467L13.8400 1.1467Q13.9733 1.2800 14.0267 1.4933L14.0267 1.4933L14.0267 1.9733L14.5067 1.9733L14.5067 1.9733Q14.7200 1.9733 14.8533 2.1333L14.8533 2.1333L14.8533 2.1333Q14.9867 2.2933 14.9867 2.5067L14.9867 2.5067L14.9867 2.5067Q14.9867 2.7200 14.8533 2.8533L14.8533 2.8533L14.8533 2.8533Q14.7200 2.9867 14.5067 2.9867L14.5067 2.9867L14.0267 2.9867L14.0267 3.5200L14.0267 3.5200Q14.0267 3.7333 13.8667 3.8667L13.8667 3.8667L13.8667 3.8667Q13.7067 4 13.4933 4L13.4933 4L13.4933 4Q13.2800 4 13.1467 3.8667L13.1467 3.8667L13.1467 3.8667Q13.0133 3.7333 13.0133 3.5200L13.0133 3.5200L13.0133 2.9867L12.4800 2.9867L12.4800 2.9867Q12.2667 2.9867 12.1333 2.8533L12.1333 2.8533L12.1333 2.8533Q12 2.7200 12 2.5067L12 2.5067L12 2.5067Q12 2.2933 12.1333 2.1333L12.1333 2.1333L12.1333 2.1333Q12.2667 1.9733 12.4800 1.9733L12.4800 1.9733L13.0133 1.9733L13.0133 1.4933L13.0133 1.4933Q13.0133 1.2800 13.1467 1.1467L13.1467 1.1467L13.1467 1.1467Q13.2800 1.0133 13.4933 1.0133ZM3.5200 2.9867L3.5200 2.9867L3.5200 2.9867Q3.7333 2.9867 3.8667 3.1467L3.8667 3.1467L3.8667 3.1467Q4 3.3067 4 3.5200L4 3.5200L4 4L4.4800 4L4.4800 4Q4.6933 4 4.8533 4.1333L4.8533 4.1333L4.8533 4.1333Q5.0133 4.2667 5.0133 4.4800L5.0133 4.4800L5.0133 4.4800Q5.0133 4.6933 4.8533 4.8533L4.8533 4.8533L4.8533 4.8533Q4.6933 5.0133 4.4800 5.0133L4.4800 5.0133L4 5.0133L4 5.4933L4 5.4933Q4 5.7067 3.8667 5.8667L3.8667 5.8667L3.8667 5.8667Q3.7333 6.0267 3.5200 6L3.5200 6L3.5200 6Q3.3067 5.9733 3.1467 5.8400L3.1467 5.8400L3.1467 5.8400Q2.9867 5.7067 2.9867 5.4933L2.9867 5.4933L2.9867 5.0133L2.5067 5.0133L2.5067 5.0133Q2.2933 5.0133 2.1600 4.8533L2.1600 4.8533L2.1600 4.8533Q2.0267 4.6933 2.0267 4.4800L2.0267 4.4800L2.0267 4.4800Q2.0267 4.2667 2.1600 4.1333L2.1600 4.1333L2.1600 4.1333Q2.2933 4 2.5067 4L2.5067 4L2.9867 4L2.9867 3.5200L2.9867 3.5200Q2.9867 3.3067 3.1467 3.1467L3.1467 3.1467L3.1467 3.1467Q3.3067 2.9867 3.5200 2.9867ZM12 12L12.4800 12L12.4800 12Q12.6933 12 12.8533 11.8667L12.8533 11.8667L12.8533 11.8667Q13.0133 11.7333 13.0133 11.5200L13.0133 11.5200L13.0133 11.5200Q13.0133 11.3067 12.8533 11.1467L12.8533 11.1467L12.8533 11.1467Q12.6933 10.9867 12.4800 10.9867L12.4800 10.9867L12 10.9867L12 10.5067L12 10.5067Q12 10.2933 11.8667 10.1600L11.8667 10.1600L11.8667 10.1600Q11.7333 10.0267 11.5200 10.0267L11.5200 10.0267L11.5200 10.0267Q11.3067 10.0267 11.1467 10.1600L11.1467 10.1600L11.1467 10.1600Q10.9867 10.2933 10.9867 10.5067L10.9867 10.5067L10.9867 10.9867L10.5067 10.9867L10.5067 10.9867Q10.2933 10.9867 10.1333 11.1467L10.1333 11.1467L10.1333 11.1467Q9.9733 11.3067 10 11.5200L10 11.5200L10 11.5200Q10.0267 11.7333 10.1600 11.8667L10.1600 11.8667L10.1600 11.8667Q10.2933 12 10.5067 12L10.5067 12L10.9867 12L10.9867 12.4800L10.9867 12.4800Q10.9867 12.6933 11.1467 12.8533L11.1467 12.8533L11.1467 12.8533Q11.3067 13.0133 11.5200 13.0133L11.5200 13.0133L11.5200 13.0133Q11.7333 13.0133 11.8667 12.8533L11.8667 12.8533L11.8667 12.8533Q12 12.6933 12 12.4800L12 12.4800L12 12ZM1.5467 11.7333L8.7467 4.5867L8.7467 4.5867Q9.2800 4 10.0800 4L10.0800 4L10.0800 4Q10.8800 4 11.4400 4.5600L11.4400 4.5600L11.4400 4.5600Q12 5.1200 12 5.9200L12 5.9200L12 5.9200Q12 6.7200 11.4133 7.2533L11.4133 7.2533L4.2667 14.4533L4.2667 14.4533Q3.6800 14.9867 2.9067 14.9867L2.9067 14.9867L2.9067 14.9867Q2.1333 14.9867 1.5733 14.4267L1.5733 14.4267L1.5733 14.4267Q1.0133 13.8667 1.0133 13.0933L1.0133 13.0933L1.0133 13.0933Q1.0133 12.3200 1.5467 11.7333L1.5467 11.7333ZM9.5467 7.7333L8.2667 6.4533L2.2933 12.4267L2.2933 12.4267Q1.9733 12.6933 1.9733 13.0667L1.9733 13.0667L1.9733 13.0667Q1.9733 13.4400 2.2667 13.7333L2.2667 13.7333L2.2667 13.7333Q2.5600 14.0267 2.9333 14.0267L2.9333 14.0267L2.9333 14.0267Q3.3067 14.0267 3.5733 13.7067L3.5733 13.7067L9.5467 7.7333ZM8.9600 5.7600L10.2400 7.0400L10.7200 6.5600L10.7200 6.5600Q10.9867 6.2933 10.9867 5.9200L10.9867 5.9200L10.9867 5.9200Q10.9867 5.5467 10.7200 5.2800L10.7200 5.2800L10.7200 5.2800Q10.4533 5.0133 10.0800 5.0133L10.0800 5.0133L10.0800 5.0133Q9.7067 5.0133 9.4400 5.2800L9.4400 5.2800L8.9600 5.7600Z" fill="currentColor"/>
</svg>
