<?xml version="1.0" encoding="UTF-8"?>
<svg width="128" height="128" viewBox="0 0 128 128" xmlns="http://www.w3.org/2000/svg">
  <defs>
    <linearGradient id="bgGrad" x1="0" y1="0" x2="0" y2="128" gradientUnits="userSpaceOnUse">
      <stop offset="0" stop-color="#45A0E6"/>
      <stop offset="1" stop-color="#1783D6"/>
    </linearGradient>
  </defs>
  <path d="M128 64 C128 75.0957 127.8378 90.0232 127.5052 97.287 C127.1727 104.5508 126.6815 104.6988 126.0049 107.5829 C125.3283 110.4669 124.4937 112.5692 123.4454 114.5913 C122.3972 116.6133 121.1909 118.2395 119.7152 119.7152 C118.2395 121.1909 116.6133 122.3972 114.5913 123.4454 C112.5692 124.4937 110.4669 125.3283 107.5829 126.0049 C104.6988 126.6815 104.5508 127.1727 97.287 127.5052 C90.0232 127.8378 75.0957 128 64 128 C52.9044 128 37.9768 127.8378 30.713 127.5052 C23.4492 127.1727 23.3012 126.6815 20.4171 126.0049 C17.5331 125.3283 15.4308 124.4937 13.4087 123.4454 C11.3867 122.3972 9.7605 121.1909 8.2848 119.7152 C6.8091 118.2395 5.6028 116.6133 4.5546 114.5913 C3.5063 112.5692 2.6717 110.4669 1.9951 107.5829 C1.3185 104.6988 0.8273 104.5508 0.4948 97.287 C0.1622 90.0232 0 75.0957 0 64 C0 52.9044 0.1622 37.9768 0.4948 30.713 C0.8273 23.4492 1.3185 23.3012 1.9951 20.4171 C2.6717 17.5331 3.5063 15.4308 4.5546 13.4087 C5.6028 11.3867 6.8091 9.7605 8.2848 8.2848 C9.7605 6.8091 11.3867 5.6028 13.4087 4.5546 C15.4308 3.5063 17.5331 2.6717 20.4171 1.9951 C23.3012 1.3185 23.4492 0.8273 30.713 0.4948 C37.9768 0.1622 52.9043 0 64 0 C75.0956 0 90.0232 0.1622 97.287 0.4948 C104.5508 0.8273 104.6988 1.3185 107.5829 1.9951 C110.4669 2.6717 112.5692 3.5063 114.5913 4.5546 C116.6133 5.6028 118.2395 6.8091 119.7152 8.2848 C121.1909 9.7605 122.3972 11.3867 123.4454 13.4087 C124.4937 15.4308 125.3283 17.5331 126.0049 20.4171 C126.6815 23.3012 127.1727 23.4492 127.5052 30.713 C127.8378 37.9768 128 52.9043 128 64 Z" fill="url(#bgGrad)"/>
  <g transform="translate(14 10) scale(6.5)">
    <path d="M13.4933 1.0133L13.4933 1.0133L13.4933 1.0133Q13.7067 1.0133 13.8400 1.1467L13.8400 1.1467L13.8400 1.1467Q13.9733 1.2800 14.0267 1.4933L14.0267 1.4933L14.0267 1.9733L14.5067 1.9733L14.5067 1.9733Q14.7200 1.9733 14.8533 2.1333L14.8533 2.1333L14.8533 2.1333Q14.9867 2.2933 14.9867 2.5067L14.9867 2.5067L14.9867 2.5067Q14.9867 2.7200 14.8533 2.8533L14.8533 2.8533L14.8533 2.8533Q14.7200 2.9867 14.5067 2.9867L14.5067 2.9867L14.0267 2.9867L14.0267 3.5200L14.0267 3.5200Q14.0267 3.7333 13.8667 3.8667L13.8667 3.8667L13.8667 3.8667Q13.7067 4 13.4933 4L13.4933 4L13.4933 4Q13.2800 4 13.1467 3.8667L13.1467 3.8667L13.1467 3.8667Q13.0133 3.7333 13.0133 3.5200L13.0133 3.5200L13.0133 2.9867L12.4800 2.9867L12.4800 2.9867Q12.2667 2.9867 12.1333 2.8533L12.1333 2.8533L12.1333 2.8533Q12 2.7200 12 2.5067L12 2.5067L12 2.5067Q12 2.2933 12.1333 2.1333L12.1333 2.1333L12.1333 2.1333Q12.2667 1.9733 12.4800 1.9733L12.4800 1.9733L13.0133 1.9733L13.0133 1.4933L13.0133 1.4933Q13.0133 1.2800 13.1467 1.1467L13.1467 1.1467L13.1467 1.1467Q13.2800 1.0133 13.4933 1.0133ZM3.5200 2.9867L3.5200 2.9867L3.5200 2.9867Q3.7333 2.9867 3.8667 3.1467L3.8667 3.1467L3.8667 3.1467Q4 3.3067 4 3.5200L4 3.5200L4 4L4.4800 4L4.4800 4Q4.6933 4 4.8533 4.1333L4.8533 4.1333L4.8533 4.1333Q5.0133 4.2667 5.0133 4.4800L5.0133 4.4800L5.0133 4.4800Q5.0133 4.6933 4.8533 4.8533L4.8533 4.8533L4.8533 4.8533Q4.6933 5.0133 4.4800 5.0133L4.4800 5.0133L4 5.0133L4 5.4933L4 5.4933Q4 5.7067 3.8667 5.8667L3.8667 5.8667L3.8667 5.8667Q3.7333 6.0267 3.5200 6L3.5200 6L3.5200 6Q3.3067 5.9733 3.1467 5.8400L3.1467 5.8400L3.1467 5.8400Q2.9867 5.7067 2.9867 5.4933L2.9867 5.4933L2.9867 5.0133L2.5067 5.0133L2.5067 5.0133Q2.2933 5.0133 2.1600 4.8533L2.1600 4.8533L2.1600 4.8533Q2.0267 4.6933 2.0267 4.4800L2.0267 4.4800L2.0267 4.4800Q2.0267 4.2667 2.1600 4.1333L2.1600 4.1333L2.1600 4.1333Q2.2933 4 2.5067 4L2.5067 4L2.9867 4L2.9867 3.5200L2.9867 3.5200Q2.9867 3.3067 3.1467 3.1467L3.1467 3.1467L3.1467 3.1467Q3.3067 2.9867 3.5200 2.9867ZM12 12L12.4800 12L12.4800 12Q12.6933 12 12.8533 11.8667L12.8533 11.8667L12.8533 11.8667Q13.0133 11.7333 13.0133 11.5200L13.0133 11.5200L13.0133 11.5200Q13.0133 11.3067 12.8533 11.1467L12.8533 11.1467L12.8533 11.1467Q12.6933 10.9867 12.4800 10.9867L12.4800 10.9867L12 10.9867L12 10.5067L12 10.5067Q12 10.2933 11.8667 10.1600L11.8667 10.1600L11.8667 10.1600Q11.7333 10.0267 11.5200 10.0267L11.5200 10.0267L11.5200 10.0267Q11.3067 10.0267 11.1467 10.1600L11.1467 10.1600L11.1467 10.1600Q10.9867 10.2933 10.9867 10.5067L10.9867 10.5067L10.9867 10.9867L10.5067 10.9867L10.5067 10.9867Q10.2933 10.9867 10.1333 11.1467L10.1333 11.1467L10.1333 11.1467Q9.9733 11.3067 10 11.5200L10 11.5200L10 11.5200Q10.0267 11.7333 10.1600 11.8667L10.1600 11.8667L10.1600 11.8667Q10.2933 12 10.5067 12L10.5067 12L10.9867 12L10.9867 12.4800L10.9867 12.4800Q10.9867 12.6933 11.1467 12.8533L11.1467 12.8533L11.1467 12.8533Q11.3067 13.0133 11.5200 13.0133L11.5200 13.0133L11.5200 13.0133Q11.7333 13.0133 11.8667 12.8533L11.8667 12.8533L11.8667 12.8533Q12 12.6933 12 12.4800L12 12.4800L12 12ZM1.5467 11.7333L8.7467 4.5867L8.7467 4.5867Q9.2800 4 10.0800 4L10.0800 4L10.0800 4Q10.8800 4 11.4400 4.5600L11.4400 4.5600L11.4400 4.5600Q12 5.1200 12 5.9200L12 5.9200L12 5.9200Q12 6.7200 11.4133 7.2533L11.4133 7.2533L4.2667 14.4533L4.2667 14.4533Q3.6800 14.9867 2.9067 14.9867L2.9067 14.9867L2.9067 14.9867Q2.1333 14.9867 1.5733 14.4267L1.5733 14.4267L1.5733 14.4267Q1.0133 13.8667 1.0133 13.0933L1.0133 13.0933L1.0133 13.0933Q1.0133 12.3200 1.5467 11.7333L1.5467 11.7333ZM9.5467 7.7333L8.2667 6.4533L2.2933 12.4267L2.2933 12.4267Q1.9733 12.6933 1.9733 13.0667L1.9733 13.0667L1.9733 13.0667Q1.9733 13.4400 2.2667 13.7333L2.2667 13.7333L2.2667 13.7333Q2.5600 14.0267 2.9333 14.0267L2.9333 14.0267L2.9333 14.0267Q3.3067 14.0267 3.5733 13.7067L3.5733 13.7067L9.5467 7.7333ZM8.9600 5.7600L10.2400 7.0400L10.7200 6.5600L10.7200 6.5600Q10.9867 6.2933 10.9867 5.9200L10.9867 5.9200L10.9867 5.9200Q10.9867 5.5467 10.7200 5.2800L10.7200 5.2800L10.7200 5.2800Q10.4533 5.0133 10.0800 5.0133L10.0800 5.0133L10.0800 5.0133Q9.7067 5.0133 9.4400 5.2800L9.4400 5.2800L8.9600 5.7600Z" fill="#FFFFFF"/>
  </g>
</svg>
